PathFileType	4	(X/Y/Z)	output.trc
DataRate	CameraRate	NumFrames	NumMarkers	Units	OrigDataRate	OrigDataStartFrame	OrigNumFrames
200	200	5	66	mm	200	222	295
Frame#	Time			LASI			RASI			RSACR			LSACR			USACR			LBAR			RBAR			RHEE			RMT1			RMT5			RMT2			LHEE			LMT1			LMT5			LMT2			LMMAL			LMFC			LLFC			LLMAL			LTIB4			LTIB2			LTIB3			LTIB1			RMMAL			RMFC			RLFC			RLMAL			RTIB1			RTIB2			RTIB3			RTHI1			RTHI4			RTHI3			RTHI2			LTHI1			LTHI4			LTHI3			LTHI2			FHD			LBHD			RBHD			C7			T10			CLAV			LSHO			RSHO			LRAD			LUL			LRFIN			RRAD			RUL			RUFIN			RLEP			RMEP			LLEP			LMEP			LDUPA			LMUPA			LUUPA			RDUPA			RUUPA			RMUPA			RKJC			LKJC			LAKJC			RAKJC
		X1	Y1	Z1	X2	Y2	Z2	X3	Y3	Z3	X4	Y4	Z4	X5	Y5	Z5	X6	Y6	Z6	X7	Y7	Z7	X8	Y8	Z8	X9	Y9	Z9	X10	Y10	Z10	X11	Y11	Z11	X12	Y12	Z12	X13	Y13	Z13	X14	Y14	Z14	X15	Y15	Z15	X16	Y16	Z16	X17	Y17	Z17	X18	Y18	Z18	X19	Y19	Z19	X20	Y20	Z20	X21	Y21	Z21	X22	Y22	Z22	X23	Y23	Z23	X24	Y24	Z24	X25	Y25	Z25	X26	Y26	Z26	X27	Y27	Z27	X28	Y28	Z28	X29	Y29	Z29	X30	Y30	Z30	X31	Y31	Z31	X32	Y32	Z32	X33	Y33	Z33	X34	Y34	Z34	X35	Y35	Z35	X36	Y36	Z36	X37	Y37	Z37	X38	Y38	Z38	X39	Y39	Z39	X40	Y40	Z40	X41	Y41	Z41	X42	Y42	Z42	X43	Y43	Z43	X44	Y44	Z44	X45	Y45	Z45	X46	Y46	Z46	X47	Y47	Z47	X48	Y48	Z48	X49	Y49	Z49	X50	Y50	Z50	X51	Y51	Z51	X52	Y52	Z52	X53	Y53	Z53	X54	Y54	Z54	X55	Y55	Z55	X56	Y56	Z56	X57	Y57	Z57	X58	Y58	Z58	X59	Y59	Z59	X60	Y60	Z60	X61	Y61	Z61	X62	Y62	Z62	X63	Y63	Z63	X64	Y64	Z64	X65	Y65	Z65	X66	Y66	Z66
221	1.105000	134.057373	761.954956	918.264465	129.883286	984.474792	918.941895	309.569855	912.301941	950.043701	308.753723	852.382202	953.274170	297.912018	882.266846	966.431580	1270.829834	-346.482971	26.306625	1226.424927	1876.960815	26.282576	323.079163	1019.664978	39.819351	128.177444	1043.319580	43.431141	165.006622	1113.797241	34.981731	140.178757	1079.971313	42.694317	326.269501	745.167236	45.829021	134.390198	736.453796	46.323627	169.968430	662.787354	33.419888	143.175659	698.039978	45.911896	276.689545	778.686951	72.942352	232.924194	829.013123	456.936401	219.289917	721.389709	454.004028	278.818573	700.989380	69.139153	290.291870	691.444214	209.600357	313.941040	691.375244	270.895935	263.392975	684.436584	268.134735	301.508759	687.130371	314.300018	275.182556	994.079102	68.348114	235.313751	935.368103	446.552307	220.629150	1041.228394	461.324158	284.678040	1068.606934	72.247643	257.113342	1082.692505	319.274170	307.559204	1077.175903	314.010010	276.587280	1081.315918	256.134277	241.856491	1060.045532	783.854797	242.908905	1064.522827	635.151672	191.485016	1066.591309	637.061890	219.118896	1070.186157	697.188232	238.653885	698.631775	778.858582	236.448746	694.291504	646.768799	185.886887	693.354126	637.479797	200.320877	689.164551	701.212097	130.807617	775.654358	1592.938721	241.603943	786.615173	1576.136353	253.162506	910.094971	1571.354004	263.604645	857.920715	1391.415039	285.974487	877.343140	1007.456543	141.462204	872.721680	1328.030518	245.424301	725.161377	1380.983521	237.218124	986.804199	1396.811523	166.099289	222.708847	1358.759888	206.730286	222.340958	1354.270020	152.664764	130.811920	1338.092041	241.496704	1500.601807	1390.089844	288.411530	1499.730469	1383.991943	235.710846	1590.771606	1392.354614	293.830688	1271.387451	1330.350708	255.517258	1271.955200	1296.781372	222.068909	454.088470	1300.486450	181.197159	466.788269	1278.075806	238.084000	506.108643	1354.147339	202.177628	536.675293	1371.708984	239.232056	585.316040	1362.719849	266.840332	1205.680054	1382.650879	257.599976	1143.967285	1384.225464	216.572983	1212.196411	1385.758789	227.971451	988.298218	453.938232	226.107056	775.201416	455.470215	277.754059	739.838135	71.040756	279.930298	1031.343018	70.297882
222	1.110000	134.065842	761.956360	918.271790	129.898468	984.469177	918.953857	309.574829	912.301636	950.034668	308.769043	852.382141	953.274048	297.922638	882.261536	966.413818	1270.815063	-346.492859	26.292246	1226.421509	1876.963135	26.281040	323.071564	1019.666565	39.821793	128.181747	1043.329346	43.435875	165.072998	1113.678467	34.819847	140.173599	1079.965942	42.695339	326.264038	745.174438	45.822929	134.394714	736.449402	46.322018	169.976227	662.784851	33.401814	143.176636	698.041138	45.911758	276.688202	778.691040	72.947960	232.911011	829.021667	456.932190	219.291321	721.392029	453.998260	278.815643	700.987427	69.132545	290.289215	691.441589	209.604767	313.947327	691.377197	270.901733	263.460724	684.492554	268.160736	301.540588	687.081360	314.321198	275.181152	994.070435	68.347832	235.298126	935.363892	446.560455	220.627319	1041.222412	461.325043	284.677521	1068.601318	72.246826	257.112000	1082.691895	319.278198	307.554596	1077.168701	314.002472	276.579834	1081.321289	256.136078	241.866028	1060.054810	783.857239	242.887665	1064.509644	635.149048	191.467133	1066.587646	637.056946	219.223236	1070.107178	697.052063	238.657288	698.625793	778.864197	236.510895	694.984558	646.572144	185.865067	693.386780	637.487488	200.313766	689.169800	701.211792	130.813156	775.647156	1592.918945	241.595001	786.617554	1576.147339	253.174042	910.103149	1571.354248	263.641998	857.918823	1391.416626	285.986206	877.332275	1007.459045	141.496063	872.717041	1328.037720	245.450317	725.153076	1380.988037	237.243423	986.797424	1396.819214	166.098419	222.708557	1358.690552	206.711380	222.336273	1354.204224	152.649307	130.809387	1338.015869	241.517410	1500.594238	1390.123169	288.428314	1499.728882	1384.032104	235.739044	1590.754883	1392.393433	293.847351	1271.379517	1330.368652	255.540894	1271.950195	1296.813599	222.079697	454.097260	1300.443237	181.206726	466.803741	1278.038086	238.082245	506.109894	1354.140747	202.185974	536.676514	1371.677856	239.249969	585.320190	1362.711670	266.855194	1205.670044	1382.659912	257.626923	1143.958130	1384.239136	216.602509	1212.150757	1385.696655	227.962723	988.293152	453.942749	226.101166	775.206848	455.465210	277.751923	739.839233	71.040253	279.929321	1031.335938	70.297333
223	1.115000	134.079315	761.954712	918.280579	129.916168	984.467163	918.958069	309.595367	912.291321	950.027283	308.776276	852.378235	953.263367	297.930786	882.256409	966.410583	1270.831787	-346.447815	26.305704	1226.423340	1876.951416	26.277166	323.081970	1019.660095	39.823566	128.185608	1043.318848	43.433441	165.072388	1113.676392	34.810570	140.175461	1079.965576	42.690948	326.267853	745.165955	45.825054	134.388367	736.448975	46.327782	169.966232	662.791809	33.417088	143.176620	698.042053	45.904938	276.691681	778.692200	72.944931	232.909576	829.024963	456.931915	219.281464	721.389771	453.995361	278.819489	700.983459	69.137321	290.280212	691.438477	209.593582	313.960449	691.372620	270.891632	263.456238	684.494873	268.156769	301.629517	687.010925	314.313843	275.174011	994.062622	68.350426	235.292648	935.352112	446.551971	220.617981	1041.214600	461.320740	284.670135	1068.600952	72.245903	257.099945	1082.689331	319.280853	307.554504	1077.168213	314.000275	276.583923	1081.321289	256.138153	241.885376	1060.046509	783.853088	242.885895	1064.527832	635.154602	191.464874	1066.572021	637.047119	219.242874	1070.108643	697.050720	238.658600	698.622192	778.862305	236.484192	694.920410	646.573730	185.868851	693.359741	637.495667	200.302292	689.166687	701.201782	130.822250	775.653870	1592.922119	241.626526	786.615173	1576.148071	253.184433	910.110474	1571.369263	263.669006	857.924377	1391.426025	285.998932	877.339539	1007.442932	141.536133	872.707397	1328.055176	245.480667	725.150635	1380.994263	237.265137	986.790710	1396.823853	166.083099	222.784576	1358.462646	206.699966	222.348053	1354.130127	152.621689	130.824112	1337.941650	241.541077	1500.592773	1390.160034	288.454071	1499.713501	1384.066772	235.767426	1590.739746	1392.444336	293.869720	1271.365601	1330.396362	255.546570	1271.962769	1296.837158	222.088791	454.102081	1300.412476	181.222397	466.816681	1277.996338	238.094803	506.115875	1354.111816	202.190903	536.675049	1371.654297	239.265594	585.305115	1362.684692	266.867157	1205.661743	1382.691162	257.636047	1143.951660	1384.266479	216.608795	1212.172241	1385.780640	227.955322	988.283325	453.936340	226.095520	775.207397	455.463623	277.755585	739.837830	71.041122	279.922058	1031.331787	70.298164
224	1.120000	134.093292	761.953003	918.288940	129.936005	984.464355	918.962646	309.613220	912.286804	950.019409	308.797272	852.371643	953.257446	297.958527	882.254272	966.395142	1270.824463	-346.468201	26.298681	1226.421631	1876.944702	26.279448	323.078857	1019.653076	39.819687	128.178970	1043.329956	43.435532	165.009979	1113.793701	34.981544	140.174927	1079.974365	42.691647	326.259033	745.171814	45.823742	134.393555	736.459167	46.329178	169.962799	662.790161	33.425983	143.178055	698.045593	45.913128	276.689697	778.688721	72.945137	232.913681	829.025452	456.928070	219.278366	721.388245	453.986176	278.810089	700.987671	69.136292	290.273743	691.441650	209.603119	313.945251	691.376282	270.906921	263.379791	684.424438	268.136536	301.627869	687.006470	314.329193	275.177887	994.068665	68.348732	235.288879	935.345886	446.551392	220.609955	1041.218628	461.327698	284.679077	1068.600830	72.252884	257.100739	1082.687378	319.277771	307.547821	1077.163574	313.997894	276.571350	1081.316162	256.131195	241.871658	1060.041748	783.855835	242.892334	1064.524902	635.158875	191.479462	1066.555786	637.042603	219.212631	1070.109375	697.068420	238.665909	698.617126	778.864197	236.410660	694.269104	646.739746	185.854904	693.363953	637.489746	200.289230	689.162170	701.211304	130.854446	775.646362	1592.911255	241.642151	786.619568	1576.162598	253.185440	910.104797	1571.370728	263.688232	857.924377	1391.419434	286.015350	877.329468	1007.435303	141.567352	872.695374	1328.054443	245.507278	725.156799	1381.010376	237.291016	986.789062	1396.832764	166.085144	222.800247	1358.397461	206.700012	222.353561	1354.052368	152.608383	130.839493	1337.859863	241.574173	1500.582764	1390.202148	288.485565	1499.712524	1384.108765	235.797607	1590.743286	1392.499512	293.902130	1271.372803	1330.428223	255.583450	1271.961548	1296.870117	222.099655	454.119568	1300.367798	181.233124	466.838165	1277.963745	238.111481	506.117706	1354.079102	202.203110	536.683899	1371.632446	239.299240	585.283569	1362.688232	266.880768	1205.659424	1382.718872	257.655579	1143.953735	1384.286621	216.643646	1212.164673	1385.799927	227.949417	988.282227	453.939545	226.096024	775.206848	455.457123	277.749878	739.838196	71.040710	279.928467	1031.334717	70.300812
225	1.125000	134.104568	761.953308	918.297729	129.947632	984.467590	918.973694	309.628357	912.283691	950.006226	308.815857	852.356628	953.247437	297.974274	882.244385	966.390747	1270.816162	-346.478699	26.294165	1226.427612	1876.954224	26.285301	323.077179	1019.649719	39.813408	128.178513	1043.329468	43.431831	165.018906	1113.786743	34.970547	140.171036	1079.968140	42.686073	326.264130	745.163208	45.824814	134.395645	736.454224	46.331001	170.146378	662.843018	33.251045	143.185074	698.045837	45.911510	276.688660	778.687561	72.942604	232.905457	829.020264	456.938995	219.284424	721.391357	453.989868	278.811829	700.982727	69.124367	290.265869	691.445496	209.603165	313.948792	691.370361	270.904907	263.382904	684.414185	268.140869	301.644623	687.008423	314.313660	275.182159	994.073669	68.349457	235.289703	935.343567	446.554932	220.601807	1041.211670	461.324615	284.680847	1068.596558	72.247719	257.095062	1082.691650	319.280090	307.542908	1077.171631	314.003845	276.561523	1081.322021	256.135071	241.882446	1060.037231	783.852112	242.884537	1064.520630	635.156555	191.436508	1066.584473	637.073486	219.193176	1070.126465	697.071411	238.666229	698.607910	778.863953	236.479538	694.900574	646.555664	185.844986	693.363831	637.500916	200.265076	689.151855	701.205872	130.863281	775.638611	1592.906372	241.653519	786.617981	1576.162842	253.203201	910.108643	1571.388184	263.733521	857.924255	1391.424438	286.030365	877.324158	1007.434692	141.604187	872.699158	1328.063843	245.533417	725.157532	1381.004639	237.314087	986.784973	1396.847168	166.080322	222.797791	1358.318726	206.699875	222.341812	1353.976929	152.600220	130.846878	1337.777222	241.604111	1500.579468	1390.251221	288.496155	1499.704468	1384.150757	235.838242	1590.736450	1392.547241	293.930756	1271.367065	1330.452393	255.627548	1271.956543	1296.897949	222.107071	454.125549	1300.340698	181.243118	466.848297	1277.932617	238.132599	506.119171	1354.045410	202.212952	536.684753	1371.604004	239.305298	585.289734	1362.684937	266.907196	1205.659546	1382.745361	257.665558	1143.947998	1384.308228	216.668137	1212.155396	1385.821045	227.945755	988.277588	453.939758	226.094940	775.205811	455.464417	277.750244	739.835144	71.033485	279.931519	1031.335083	70.298584
